<svg width="61" height="60" viewBox="0 0 61 60" fill="none" xmlns="http://www.w3.org/2000/svg">
<g filter="url(#filter0_dd_136_5060)">
<rect x="8.5" y="4" width="44" height="44" rx="22" fill="#56AAFF"/>
<path d="M30.5 24.02C30.3661 24.02 30.25 23.9039 30.25 23.77V20.44C30.25 20.3061 30.3661 20.19 30.5 20.19C30.6339 20.19 30.75 20.3061 30.75 20.44V23.77C30.75 23.9095 30.6382 24.02 30.5 24.02Z" fill="#243134" stroke="white"/>
<path d="M23.4429 27.17L23.4429 27.17C23.8138 26.5607 24.11 25.4811 24.11 24.76V22.66C24.11 19.1238 26.9838 16.25 30.52 16.25C34.057 16.25 36.9291 19.1244 36.94 22.6685L36.94 22.67L36.94 24.77C36.94 25.4911 37.2362 26.5707 37.6071 27.18L37.6089 27.183L38.8789 29.303L38.8807 29.306C39.1819 29.8167 39.2544 30.4331 39.0391 31.003C38.8358 31.5676 38.3896 31.9978 37.8163 32.1849L23.4429 27.17ZM23.4429 27.17L23.4405 27.1739M23.4429 27.17L23.4405 27.1739M23.4405 27.1739L22.1721 29.3013M23.4405 27.1739L22.1721 29.3013M22.1721 29.3013C22.1719 29.3017 22.1716 29.3022 22.1713 29.3026L22.1721 29.3013ZM23.0787 32.6458L23.0765 32.6451C22.299 32.3888 21.7326 31.8425 21.4896 31.1782C21.2455 30.5111 21.3202 29.728 21.7389 29.0269C21.7389 29.0269 21.7389 29.0269 21.7389 29.0269C21.739 29.0268 21.7391 29.0266 21.7392 29.0265L23.0089 26.9069L23.0095 26.9059C23.1799 26.6199 23.327 26.237 23.4314 25.8651C23.5356 25.4936 23.61 25.0876 23.61 24.75V22.65C23.61 18.8361 26.7061 15.74 30.52 15.74C34.3338 15.74 37.43 18.8361 37.43 22.65V24.75C37.43 25.0829 37.5045 25.4891 37.6085 25.8609C37.7126 26.2333 37.8596 26.6192 38.0304 26.9059L38.0311 26.9069L39.3011 29.0269L39.3017 29.028C39.6919 29.6755 39.7597 30.4473 39.5003 31.1587C39.2438 31.862 38.6805 32.4033 37.9602 32.6462L37.9596 32.6464C35.564 33.458 33.0484 33.85 30.52 33.85C27.9928 33.85 25.4765 33.4484 23.0787 32.6458Z" fill="#243134" stroke="white"/>
<path d="M30.5 36.4C29.5645 36.4 28.6412 36.014 27.9736 35.3465C27.4256 34.7984 27.0673 34.078 26.9566 33.32H27.462C27.5685 33.9514 27.873 34.5401 28.3265 34.9936C28.898 35.5651 29.6843 35.9 30.5 35.9C32.026 35.9 33.2992 34.7799 33.5393 33.32H34.0452C33.8012 35.0581 32.3043 36.4 30.5 36.4Z" fill="#243134" stroke="white"/>
</g>
<defs>
<filter id="filter0_dd_136_5060" x="0.5" y="0" width="60" height="60" filterUnits="userSpaceOnUse" color-interpolation-filters="sRGB">
<feFlood flood-opacity="0" result="BackgroundImageFix"/>
<feColorMatrix in="SourceAlpha" type="matrix" values="0 0 0 0 0 0 0 0 0 0 0 0 0 0 0 0 0 0 127 0" result="hardAlpha"/>
<feOffset dy="4"/>
<feGaussianBlur stdDeviation="4"/>
<feColorMatrix type="matrix" values="0 0 0 0 0.376471 0 0 0 0 0.380392 0 0 0 0 0.439216 0 0 0 0.16 0"/>
<feBlend mode="normal" in2="BackgroundImageFix" result="effect1_dropShadow_136_5060"/>
<feColorMatrix in="SourceAlpha" type="matrix" values="0 0 0 0 0 0 0 0 0 0 0 0 0 0 0 0 0 0 127 0" result="hardAlpha"/>
<feOffset/>
<feGaussianBlur stdDeviation="1"/>
<feColorMatrix type="matrix" values="0 0 0 0 0.156863 0 0 0 0 0.160784 0 0 0 0 0.239216 0 0 0 0.04 0"/>
<feBlend mode="normal" in2="effect1_dropShadow_136_5060" result="effect2_dropShadow_136_5060"/>
<feBlend mode="normal" in="SourceGraphic" in2="effect2_dropShadow_136_5060" result="shape"/>
</filter>
</defs>
</svg>
