<svg width="88" height="68" viewBox="0 0 88 68" fill="none" xmlns="http://www.w3.org/2000/svg">
<g filter="url(#filter0_dd_77_7376)">
<rect x="4" y="2" width="80" height="60" rx="12" fill="#F2F2F5"/>
<path fill-rule="evenodd" clip-rule="evenodd" d="M55.6667 30.3334H45.6667V20.3334C45.6667 19.4117 44.9201 18.6667 44.0001 18.6667C43.0801 18.6667 42.3334 19.4117 42.3334 20.3334V30.3334H32.3334C31.4134 30.3334 30.6667 31.0784 30.6667 32C30.6667 32.9217 31.4134 33.6667 32.3334 33.6667H42.3334V43.6667C42.3334 44.5884 43.0801 45.3334 44.0001 45.3334C44.9201 45.3334 45.6667 44.5884 45.6667 43.6667V33.6667H55.6667C56.5867 33.6667 57.3334 32.9217 57.3334 32C57.3334 31.0784 56.5867 30.3334 55.6667 30.3334Z" fill="#0078E7"/>
</g>
<defs>
<filter id="filter0_dd_77_7376" x="0" y="0" width="88" height="68" filterUnits="userSpaceOnUse" color-interpolation-filters="sRGB">
<feFlood flood-opacity="0" result="BackgroundImageFix"/>
<feColorMatrix in="SourceAlpha" type="matrix" values="0 0 0 0 0 0 0 0 0 0 0 0 0 0 0 0 0 0 127 0" result="hardAlpha"/>
<feOffset dy="2"/>
<feGaussianBlur stdDeviation="2"/>
<feColorMatrix type="matrix" values="0 0 0 0 0.376471 0 0 0 0 0.380392 0 0 0 0 0.439216 0 0 0 0.16 0"/>
<feBlend mode="normal" in2="BackgroundImageFix" result="effect1_dropShadow_77_7376"/>
<feColorMatrix in="SourceAlpha" type="matrix" values="0 0 0 0 0 0 0 0 0 0 0 0 0 0 0 0 0 0 127 0" result="hardAlpha"/>
<feOffset/>
<feGaussianBlur stdDeviation="0.5"/>
<feColorMatrix type="matrix" values="0 0 0 0 0.156863 0 0 0 0 0.160784 0 0 0 0 0.239216 0 0 0 0.04 0"/>
<feBlend mode="normal" in2="effect1_dropShadow_77_7376" result="effect2_dropShadow_77_7376"/>
<feBlend mode="normal" in="SourceGraphic" in2="effect2_dropShadow_77_7376" result="shape"/>
</filter>
</defs>
</svg>
