<svg width="24" height="24" viewBox="0 0 24 24" fill="none" xmlns="http://www.w3.org/2000/svg">
<path fill-rule="evenodd" clip-rule="evenodd" d="M4 13.9999C5.10457 13.9999 6 13.1045 6 11.9999C6 10.8954 5.10457 9.99994 4 9.99994C2.89543 9.99994 2 10.8954 2 11.9999C2 13.1045 2.89543 13.9999 4 13.9999ZM11.7084 13.9999C12.8129 13.9999 13.7084 13.1045 13.7084 11.9999C13.7084 10.8954 12.8129 9.99994 11.7084 9.99994C10.6038 9.99994 9.70837 10.8954 9.70837 11.9999C9.70837 13.1045 10.6038 13.9999 11.7084 13.9999ZM21.4167 11.9999C21.4167 13.1045 20.5213 13.9999 19.4167 13.9999C18.3122 13.9999 17.4167 13.1045 17.4167 11.9999C17.4167 10.8954 18.3122 9.99994 19.4167 9.99994C20.5213 9.99994 21.4167 10.8954 21.4167 11.9999Z" fill="white"/>
</svg>
